<svg xmlns="http://www.w3.org/2000/svg" viewBox="0 0 520 680" width="520" height="680">
  <defs><style>text{font-family:'PingFang SC','Hiragino Sans GB','Heiti SC',sans-serif}</style></defs>
  <rect width="520" height="680" fill="#fafafa"/>
  <text x="260" y="24" text-anchor="middle" font-size="15" font-weight="700">图：考拉（树袋熊）Phascolarctos cinereus</text>
  <text x="260" y="42" text-anchor="middle" font-size="9" fill="#999">通义万相 AI 线稿 → 暗区定比例 → DPT-CP1 标注</text>

  <ellipse cx="250" cy="380" rx="130" ry="145" fill="#fff" stroke="#000" stroke-width="2.5"/>
  <ellipse cx="245" cy="410" rx="65" ry="90" fill="#ddd" stroke="none"/>

  <rect x="30" y="100" width="68" height="580" fill="#fff" stroke="#000" stroke-width="2.0" rx="4"/>
  <path d="M40,140 Q52,135 58,145" fill="none" stroke="#555" stroke-width="0.8"/>
  <path d="M42,260 Q55,255 60,265" fill="none" stroke="#555" stroke-width="0.8"/>
  <path d="M40,400 Q55,395 60,405" fill="none" stroke="#555" stroke-width="0.8"/>
  <path d="M42,520 Q55,515 60,525" fill="none" stroke="#555" stroke-width="0.8"/>

  <path d="M98,180 Q180,155 260,165 Q320,175 380,185" fill="none" stroke="#000" stroke-width="3.0" stroke-linecap="round"/>
  <path d="M280,167 Q320,158 350,163" fill="none" stroke="#555" stroke-width="1.0"/>

  <ellipse cx="260" cy="225" rx="75" ry="65" fill="#fff" stroke="#000" stroke-width="2.5"/>

  <ellipse cx="195" cy="165" rx="46" ry="50" fill="#fff" stroke="#000" stroke-width="2.8"/>
  <ellipse cx="195" cy="165" rx="28" ry="34" fill="#ddd" stroke="none"/>
  <path d="M160,152 Q152,144 160,138" fill="none" stroke="#000" stroke-width="1.2" stroke-linecap="round"/>
  <path d="M154,168 Q146,164 154,156" fill="none" stroke="#000" stroke-width="1.2" stroke-linecap="round"/>
  <path d="M160,182 Q152,188 160,194" fill="none" stroke="#000" stroke-width="1.0" stroke-linecap="round"/>
  <path d="M174,196 Q168,204 176,208" fill="none" stroke="#000" stroke-width="1.0" stroke-linecap="round"/>

  <ellipse cx="310" cy="158" rx="40" ry="44" fill="#fff" stroke="#000" stroke-width="2.5"/>
  <ellipse cx="310" cy="158" rx="22" ry="28" fill="#ddd" stroke="none"/>
  <path d="M338,148 Q348,140 338,134 Q330,140 334,146" fill="none" stroke="#000" stroke-width="1.0"/>

  <ellipse cx="232" cy="210" rx="7" ry="8" fill="#000"/>
  <circle cx="234" cy="207" r="2.5" fill="#fff"/>
  <ellipse cx="290" cy="205" rx="7" ry="8" fill="#000"/>
  <circle cx="292" cy="202" r="2.5" fill="#fff"/>

  <ellipse cx="264" cy="245" rx="30" ry="24" fill="#555" stroke="#000" stroke-width="2.0"/>
  <ellipse cx="256" cy="248" rx="5" ry="3.5" fill="#000"/>
  <ellipse cx="272" cy="248" rx="5" ry="3.5" fill="#000"/>
  <path d="M242,235 Q252,238 262,240" fill="none" stroke="#555" stroke-width="0.8"/>

  <path d="M250,272 Q264,282 280,270" fill="none" stroke="#000" stroke-width="1.2"/>

  <path d="M208,280 Q192,250 182,220 Q174,195 177,185" fill="none" stroke="#000" stroke-width="2.8"/>
  <ellipse cx="179" cy="183" rx="17" ry="10" fill="#fff" stroke="#000" stroke-width="2.0" transform="rotate(-10,179,183)"/>
  <line x1="168" y1="176" x2="162" y2="168" stroke="#000" stroke-width="1.2" stroke-linecap="round"/>
  <line x1="177" y1="174" x2="173" y2="166" stroke="#000" stroke-width="1.2" stroke-linecap="round"/>

  <path d="M300,300 Q290,340 270,395 Q255,435 240,470 Q228,498 222,518" fill="none" stroke="#000" stroke-width="2.8"/>
  <ellipse cx="220" cy="518" rx="15" ry="9" fill="#fff" stroke="#000" stroke-width="2.0"/>
  <line x1="210" y1="520" x2="203" y2="527" stroke="#000" stroke-width="1.2" stroke-linecap="round"/>
  <line x1="220" y1="523" x2="218" y2="531" stroke="#000" stroke-width="1.2" stroke-linecap="round"/>

  <path d="M218,460 Q200,490 185,530 Q172,560 165,585 Q160,600 158,610" fill="none" stroke="#000" stroke-width="2.8"/>
  <ellipse cx="156" cy="608" rx="15" ry="8" fill="#fff" stroke="#000" stroke-width="2.0"/>
  <line x1="146" y1="610" x2="140" y2="617" stroke="#000" stroke-width="1.0" stroke-linecap="round"/>
  <line x1="157" y1="614" x2="153" y2="622" stroke="#000" stroke-width="1.0" stroke-linecap="round"/>

  <path d="M318,430 Q310,460 300,500 Q290,535 283,560 Q278,575 276,585" fill="none" stroke="#000" stroke-width="2.5"/>
  <ellipse cx="274" cy="583" rx="14" ry="8" fill="#fff" stroke="#000" stroke-width="1.8"/>

  <path d="M200,325 Q194,332 198,340" fill="none" stroke="#999" stroke-width="0.6"/>
  <path d="M195,390 Q190,396 193,402" fill="none" stroke="#999" stroke-width="0.6"/>
  <path d="M330,345 Q335,352 332,358" fill="none" stroke="#999" stroke-width="0.6"/>

  <path d="M380,185 Q405,172 422,182 Q412,190 395,192" fill="#fff" stroke="#555" stroke-width="1.0"/>
  <path d="M370,165 Q395,148 410,160 Q400,170 385,168" fill="#fff" stroke="#555" stroke-width="1.0"/>

  <!-- LABELS -->
  <line x1="195" y1="115" x2="100" y2="80" stroke="#000" stroke-width="0.8"/>
  <circle cx="195" cy="115" r="2.5" fill="#000"/>
  <text x="95" y="73" text-anchor="end" font-size="12" font-weight="700">耳廓</text>
  <text x="95" y="88" text-anchor="end" font-size="10" fill="#555">大而圆 · 绒毛密布</text>

  <line x1="294" y1="245" x2="400" y2="215" stroke="#000" stroke-width="0.8"/>
  <circle cx="294" cy="245" r="2.5" fill="#000"/>
  <text x="405" y="210" font-size="12" font-weight="700">鼻镜</text>
  <text x="405" y="226" font-size="10" fill="#555">裸露革质 · 占面约1/4</text>

  <line x1="218" y1="518" x2="100" y2="480" stroke="#000" stroke-width="0.8"/>
  <circle cx="218" cy="518" r="2.5" fill="#000"/>
  <text x="95" y="473" text-anchor="end" font-size="11" font-weight="700">前肢 · 对生指</text>
  <text x="95" y="488" text-anchor="end" font-size="9" fill="#555">两指对三指 · 强爪抱握树干</text>

  <line x1="154" y1="608" x2="58" y2="590" stroke="#000" stroke-width="0.8"/>
  <circle cx="154" cy="608" r="2.5" fill="#000"/>
  <text x="53" y="583" text-anchor="end" font-size="11" font-weight="700">后肢</text>
  <text x="53" y="598" text-anchor="end" font-size="9" fill="#555">强握力 · 攀爬主力</text>

  <line x1="248" y1="450" x2="140" y2="465" stroke="#000" stroke-width="0.8"/>
  <circle cx="248" cy="450" r="2" fill="#000"/>
  <text x="135" y="458" text-anchor="end" font-size="10" font-weight="700">育儿袋</text>
  <text x="135" y="473" text-anchor="end" font-size="9" fill="#555">有袋类 · 开口向下</text>

  <line x1="375" y1="178" x2="465" y2="150" stroke="#000" stroke-width="0.8"/>
  <circle cx="375" cy="178" r="2" fill="#000"/>
  <text x="470" y="145" font-size="10" font-weight="700">桉叶</text>
  <text x="470" y="161" font-size="9" fill="#555">专食 · 低营养 · 久睡</text>

  <text x="260" y="668" text-anchor="middle" font-size="8" fill="#999">AI生图参考(prompt 含4组否定词: no shading/gradient/gray/color fill) → 暗区比例定标 → 四级灰度标注</text>
</svg>
