<svg xmlns="http://www.w3.org/2000/svg" viewBox="0 0 520 680" width="520" height="680">
  <defs><style>text{font-family:'PingFang SC','Hiragino Sans GB','Heiti SC',sans-serif}</style></defs>
  <rect width="520" height="680" fill="#fafafa"/>
  <text x="260" y="24" text-anchor="middle" font-size="15" font-weight="700">图：考拉（树袋熊）AI 参考重建</text>
  <text x="260" y="42" text-anchor="middle" font-size="9" fill="#999">通义万相生成线稿 → 暗区分析定比例 → SVG 重建</text>

  <!-- Eucalyptus trunk — left side, vertical -->
  <rect x="45" y="60" width="70" height="620" fill="#fff" stroke="#000" stroke-width="2.0" rx="4"/>
  <path d="M55,100 Q68,95 75,105" fill="none" stroke="#555" stroke-width="0.8"/>
  <path d="M60,200 Q72,195 78,205" fill="none" stroke="#555" stroke-width="0.8"/>
  <path d="M55,320 Q70,315 76,325" fill="none" stroke="#555" stroke-width="0.8"/>
  <path d="M58,450 Q72,445 77,455" fill="none" stroke="#555" stroke-width="0.8"/>

  <!-- Branch extending right -->
  <path d="M115,160 Q180,140 260,148 Q320,155 380,160" fill="none" stroke="#000" stroke-width="3.0" stroke-linecap="round"/>
  <path d="M270,150 Q300,142 320,145" fill="none" stroke="#555" stroke-width="0.8"/>

  <!-- BODY — large round shape on trunk -->
  <ellipse cx="230" cy="350" rx="95" ry="125" fill="#fff" stroke="#000" stroke-width="2.5"/>
  <ellipse cx="225" cy="375" rx="50" ry="75" fill="#ddd" stroke="none"/>

  <!-- HEAD — top of body, large round -->
  <ellipse cx="240" cy="210" rx="78" ry="68" fill="#fff" stroke="#000" stroke-width="2.5"/>

  <!-- LEFT EAR — huge fluffy -->
  <ellipse cx="172" cy="148" rx="44" ry="48" fill="#fff" stroke="#000" stroke-width="2.8"/>
  <ellipse cx="172" cy="148" rx="26" ry="32" fill="#ddd" stroke="none"/>
  <path d="M138,136 Q130,128 140,122 Q148,128 144,135" fill="none" stroke="#000" stroke-width="1.2"/>
  <path d="M132,150 Q124,146 132,138 Q140,144 136,148" fill="none" stroke="#000" stroke-width="1.2"/>
  <path d="M136,164 Q128,170 136,176 Q144,170 140,164" fill="none" stroke="#000" stroke-width="1.0"/>
  <path d="M150,178 Q144,186 152,190 Q160,184 154,178" fill="none" stroke="#000" stroke-width="1.0"/>
  <path d="M165,185 Q160,195 168,196 Q174,190 170,185" fill="none" stroke="#555" stroke-width="0.8"/>

  <!-- RIGHT EAR -->
  <ellipse cx="288" cy="142" rx="36" ry="40" fill="#fff" stroke="#000" stroke-width="2.3"/>
  <ellipse cx="288" cy="142" rx="20" ry="26" fill="#ddd" stroke="none"/>
  <path d="M312,130 Q320,124 312,118 Q304,124 308,130" fill="none" stroke="#000" stroke-width="1.0"/>
  <path d="M316,144 Q324,140 316,134 Q308,140 312,144" fill="none" stroke="#000" stroke-width="1.0"/>

  <!-- EYES — small dark dots -->
  <ellipse cx="210" cy="193" rx="7" ry="8" fill="#000"/>
  <circle cx="212" cy="190" r="2.5" fill="#fff"/>
  <ellipse cx="268" cy="188" rx="7" ry="8" fill="#000"/>
  <circle cx="270" cy="185" r="2.5" fill="#fff"/>

  <!-- NOSE — huge black -->
  <ellipse cx="242" cy="228" rx="30" ry="24" fill="#555" stroke="#000" stroke-width="2.0"/>
  <ellipse cx="234" cy="231" rx="5" ry="3.5" fill="#000"/>
  <ellipse cx="250" cy="231" rx="5" ry="3.5" fill="#000"/>
  <path d="M220,218 Q232,222 240,224" fill="none" stroke="#555" stroke-width="0.8"/>

  <!-- MOUTH -->
  <path d="M228,255 Q242,264 256,254" fill="none" stroke="#000" stroke-width="1.2"/>

  <!-- FRONT LEFT ARM — reaching up to branch -->
  <path d="M185,260 Q170,230 162,200 Q158,175 160,162" fill="none" stroke="#000" stroke-width="2.8"/>
  <ellipse cx="162" cy="160" rx="16" ry="10" fill="#fff" stroke="#000" stroke-width="1.8" transform="rotate(-15,162,160)"/>
  <line x1="152" y1="154" x2="146" y2="148" stroke="#000" stroke-width="1.2" stroke-linecap="round"/>
  <line x1="160" y1="152" x2="158" y2="145" stroke="#000" stroke-width="1.2" stroke-linecap="round"/>

  <!-- FRONT RIGHT ARM — gripping trunk -->
  <path d="M280,285 Q270,320 250,370 Q235,405 220,445 Q208,475 200,500 Q195,515 190,525" fill="none" stroke="#000" stroke-width="2.8"/>
  <ellipse cx="187" cy="524" rx="14" ry="8" fill="#fff" stroke="#000" stroke-width="1.8"/>
  <line x1="178" y1="526" x2="172" y2="532" stroke="#000" stroke-width="1.2" stroke-linecap="round"/>
  <line x1="187" y1="529" x2="184" y2="536" stroke="#000" stroke-width="1.2" stroke-linecap="round"/>
  <line x1="196" y1="529" x2="198" y2="536" stroke="#000" stroke-width="1.2" stroke-linecap="round"/>

  <!-- BACK LEFT LEG — gripping trunk lower -->
  <path d="M195,440 Q180,470 165,510 Q155,540 148,565 Q142,582 140,595" fill="none" stroke="#000" stroke-width="2.8"/>
  <ellipse cx="137" cy="593" rx="14" ry="7" fill="#fff" stroke="#000" stroke-width="1.8"/>
  <line x1="128" y1="595" x2="123" y2="601" stroke="#000" stroke-width="1.0" stroke-linecap="round"/>
  <line x1="138" y1="598" x2="135" y2="605" stroke="#000" stroke-width="1.0" stroke-linecap="round"/>

  <!-- BACK RIGHT LEG -->
  <path d="M295,410 Q290,440 280,480 Q268,515 258,550 Q250,570 248,580" fill="none" stroke="#000" stroke-width="2.5"/>
  <ellipse cx="245" cy="578" rx="13" ry="7" fill="#fff" stroke="#000" stroke-width="1.5"/>

  <!-- Fluffy texture -->
  <path d="M180,310 Q174,316 178,322" fill="none" stroke="#999" stroke-width="0.6"/>
  <path d="M175,370 Q170,376 173,382" fill="none" stroke="#999" stroke-width="0.6"/>
  <path d="M300,330 Q305,336 302,342" fill="none" stroke="#999" stroke-width="0.6"/>
  <path d="M290,390 Q295,396 292,402" fill="none" stroke="#999" stroke-width="0.6"/>

  <!-- Eucalyptus leaves -->
  <path d="M380,160 Q400,150 415,158 Q405,165 390,168" fill="#fff" stroke="#555" stroke-width="1.0"/>
  <path d="M370,145 Q390,130 405,140 Q395,148 380,150" fill="#fff" stroke="#555" stroke-width="1.0"/>

  <!-- LABELS -->
  <line x1="172" y1="100" x2="85" y2="68" stroke="#000" stroke-width="0.8"/>
  <circle cx="172" cy="100" r="2.5" fill="#000"/>
  <text x="80" y="61" text-anchor="end" font-size="12" font-weight="700">耳廓</text>
  <text x="80" y="76" text-anchor="end" font-size="10" fill="#555">大而圆·绒毛密布</text>

  <line x1="272" y1="228" x2="370" y2="195" stroke="#000" stroke-width="0.8"/>
  <circle cx="272" cy="228" r="2.5" fill="#000"/>
  <text x="375" y="190" font-size="12" font-weight="700">鼻镜</text>
  <text x="375" y="206" font-size="10" fill="#555">大·裸露革质</text>

  <line x1="185" y1="524" x2="80" y2="495" stroke="#000" stroke-width="0.8"/>
  <circle cx="185" cy="524" r="2.5" fill="#000"/>
  <text x="75" y="488" text-anchor="end" font-size="11" font-weight="700">对生指</text>
  <text x="75" y="503" text-anchor="end" font-size="9" fill="#555">前2后3·强爪抱握</text>

  <line x1="345" y1="155" x2="440" y2="130" stroke="#000" stroke-width="0.8"/>
  <circle cx="345" cy="155" r="2" fill="#000"/>
  <text x="445" y="125" font-size="10" font-weight="700">桉树枝</text>
  <text x="445" y="141" font-size="9" fill="#555">专食桉叶·低营养</text>

  <line x1="210" y1="410" x2="100" y2="425" stroke="#000" stroke-width="0.8"/>
  <circle cx="210" cy="410" r="2" fill="#000"/>
  <text x="95" y="418" text-anchor="end" font-size="10" font-weight="700">育儿袋</text>
  <text x="95" y="433" text-anchor="end" font-size="9" fill="#555">有袋类·开口向下</text>

  <text x="260" y="668" text-anchor="middle" font-size="9" fill="#999">图：考拉 · 通义万相 AI 参考 → 暗区分析 → DPT-CP1 四级灰度重建</text>
</svg>
