<svg xmlns="http://www.w3.org/2000/svg" viewBox="0 0 520 700" width="520" height="700">
  <defs><style>text{font-family:'PingFang SC','Hiragino Sans GB','Heiti SC',sans-serif}</style></defs>
  <rect width="520" height="700" fill="#fafafa"/>
  <text x="260" y="20" text-anchor="middle" font-size="15" font-weight="700">图：超级赛亚人——YOLOv8 骨架定标重建</text>

  <!-- Aura -->
  <ellipse cx="264" cy="350" rx="220" ry="230" fill="#fff"/>
  <ellipse cx="264" cy="350" rx="190" ry="205" fill="#ddd"/>

  <!-- Aura spikes -->
  <path d="M264,40 L295,10 L285,35 L320,5 L310,32 L350,8 L335,30 L375,15 L358,38 L400,30 L382,48 L425,50 L400,58 L430,75 L405,75" fill="none" stroke="#999" stroke-width="1.5" stroke-linejoin="round"/>
  <path d="M264,40 L233,10 L243,35 L208,5 L218,32 L178,8 L193,30 L153,15 L170,38 L128,30 L146,48 L103,50 L128,58 L98,75 L123,75" fill="none" stroke="#999" stroke-width="1.5" stroke-linejoin="round"/>

  <!-- ===== HAIR -- anchored at forehead ~y=130, face top ~y=130 ===== -->
  <!-- Crown area -->
  <ellipse cx="264" cy="140" rx="48" ry="18" fill="#000"/>
  <!-- Tier 1: tallest central -->
  <path d="M264,140 L260,12" stroke="#000" stroke-width="3.2" stroke-linecap="round"/>
  <path d="M264,140 L242,15" stroke="#000" stroke-width="3.0" stroke-linecap="round"/>
  <path d="M264,140 L286,15" stroke="#000" stroke-width="3.0" stroke-linecap="round"/>
  <!-- Tier 2 -->
  <path d="M264,140 L222,22" stroke="#000" stroke-width="2.8" stroke-linecap="round"/>
  <path d="M264,140 L306,22" stroke="#000" stroke-width="2.8" stroke-linecap="round"/>
  <path d="M264,140 L205,32" stroke="#000" stroke-width="2.5" stroke-linecap="round"/>
  <path d="M264,140 L323,32" stroke="#000" stroke-width="2.5" stroke-linecap="round"/>
  <!-- Tier 3 -->
  <path d="M264,140 L190,45" stroke="#000" stroke-width="2.3" stroke-linecap="round"/>
  <path d="M264,140 L338,45" stroke="#000" stroke-width="2.3" stroke-linecap="round"/>
  <path d="M264,140 L175,58" stroke="#000" stroke-width="2.0" stroke-linecap="round"/>
  <path d="M264,140 L353,58" stroke="#000" stroke-width="2.0" stroke-linecap="round"/>
  <!-- Tier 4: back layer -->
  <path d="M264,140 L245,25" stroke="#555" stroke-width="2.0" stroke-linecap="round"/>
  <path d="M264,140 L283,28" stroke="#555" stroke-width="2.0" stroke-linecap="round"/>
  <path d="M264,140 L228,35" stroke="#555" stroke-width="1.8" stroke-linecap="round"/>
  <path d="M264,140 L300,38" stroke="#555" stroke-width="1.8" stroke-linecap="round"/>
  <!-- Side tendrils -->
  <path d="M264,142 L162,70" stroke="#555" stroke-width="1.5" stroke-linecap="round"/>
  <path d="M264,142 L366,70" stroke="#555" stroke-width="1.5" stroke-linecap="round"/>
  <!-- Bang strands -->
  <path d="M262,140 Q258,155 254,168" fill="none" stroke="#000" stroke-width="2.0" stroke-linecap="round"/>
  <path d="M272,142 Q276,152 280,162" fill="none" stroke="#000" stroke-width="1.8" stroke-linecap="round"/>

  <!-- ===== FACE -- anchored at nose (264,183), eyes (276,171)/(247,173) ===== -->
  <!-- Face outline -->
  <ellipse cx="264" cy="190" rx="50" ry="55" fill="#fff" stroke="#000" stroke-width="2.0"/>
  <!-- Jaw -->
  <path d="M225,198 Q228,235 264,242 Q300,235 303,198" fill="none" stroke="#000" stroke-width="2.0"/>

  <!-- Eyebrows -- steep angle, above eyes -->
  <line x1="236" y1="165" x2="258" y2="155" stroke="#000" stroke-width="2.8" stroke-linecap="round"/>
  <line x1="292" y1="165" x2="270" y2="155" stroke="#000" stroke-width="2.8" stroke-linecap="round"/>

  <!-- Eyes -->
  <ellipse cx="276" cy="171" rx="9" ry="5" fill="#000"/>
  <circle cx="279" cy="170" r="1.8" fill="#fff"/>
  <ellipse cx="247" cy="173" rx="9" ry="5" fill="#000"/>
  <circle cx="250" cy="172" r="1.8" fill="#fff"/>

  <!-- Nose -->
  <path d="M264,183 L262,196 L257,198" fill="none" stroke="#000" stroke-width="1.0"/>

  <!-- Mouth -->
  <path d="M244,218 Q264,228 284,218" fill="none" stroke="#000" stroke-width="1.8"/>

  <!-- ===== NECK -- chin(~y=240) to shoulders(y=220) ===== -->
  <line x1="247" y1="242" x2="240" y2="275" stroke="#000" stroke-width="1.8"/>
  <line x1="281" y1="242" x2="288" y2="275" stroke="#000" stroke-width="1.8"/>

  <!-- ===== SHOULDERS -- left(313,222) right(211,218) width=102px ===== -->
  <path d="M240,275 Q220,282 200,295 Q180,310 170,325 Q163,338 165,352" fill="none" stroke="#000" stroke-width="2.0"/>
  <path d="M288,275 Q308,282 328,295 Q348,310 358,325 Q365,338 363,352" fill="none" stroke="#000" stroke-width="2.0"/>

  <!-- ===== CHEST ===== -->
  <path d="M235,282 Q245,295 264,298 Q283,295 293,282" fill="none" stroke="#000" stroke-width="1.5"/>
  <!-- Gi V-neck -->
  <path d="M240,286 L264,318 L288,286" fill="#fafafa" stroke="#000" stroke-width="1.5"/>

  <!-- ===== ARMS -- elbows (337,293)/(188,281) wrists (331,274)/(194,286) ===== -->
  <!-- Left arm (character's right, viewer's left) -->
  <path d="M165,352 Q150,375 155,395 Q162,415 180,430 Q195,440 210,442" fill="none" stroke="#000" stroke-width="2.0"/>
  <path d="M210,442 Q220,445 228,438 Q235,430 238,420" fill="none" stroke="#000" stroke-width="1.8"/>
  <!-- Left fist -->
  <ellipse cx="241" cy="416" rx="13" ry="11" fill="#fff" stroke="#000" stroke-width="2.0"/>

  <!-- Right arm (character's left, viewer's right) -->
  <path d="M363,352 Q378,375 373,395 Q366,415 348,430 Q333,440 318,442" fill="none" stroke="#000" stroke-width="2.0"/>
  <path d="M318,442 Q308,445 300,438 Q293,430 290,420" fill="none" stroke="#000" stroke-width="1.8"/>
  <!-- Right fist -->
  <ellipse cx="287" cy="416" rx="13" ry="11" fill="#fff" stroke="#000" stroke-width="2.0"/>

  <!-- ===== GI TOP ===== -->
  <path d="M165,352 L170,410 Q172,418 178,422" fill="none" stroke="#000" stroke-width="1.8"/>
  <path d="M363,352 L358,410 Q356,418 350,422" fill="none" stroke="#000" stroke-width="1.8"/>

  <!-- ===== BELT -- at hip level y=355 ===== -->
  <rect x="170" y="350" width="188" height="20" fill="#555" stroke="#000" stroke-width="1.5"/>
  <rect x="252" y="352" width="24" height="16" fill="none" stroke="#000" stroke-width="1.2"/>
  <!-- Belt tails -->
  <path d="M264,370 L260,395 L268,395 Z" fill="#fff" stroke="#000" stroke-width="1.0"/>

  <!-- ===== PANTS -- hips(355) to knees(477) to ankles(590) ===== -->
  <path d="M178,422 L165,542 Q162,560 165,570" fill="none" stroke="#000" stroke-width="1.5"/>
  <path d="M350,422 L363,542 Q366,560 363,570" fill="none" stroke="#000" stroke-width="1.5"/>
  <!-- Pant legs full -->
  <rect x="195" y="370" width="238" height="200" fill="#fff" stroke="#000" stroke-width="1.5" rx="2"/>
  <!-- Pant inner seams -->
  <line x1="264" y1="370" x2="264" y2="570" stroke="#555" stroke-width="0.8"/>
  <!-- Pant wrinkles -->
  <path d="M210,420 Q215,460 208,500" fill="none" stroke="#555" stroke-width="0.6"/>
  <path d="M318,420 Q313,460 320,500" fill="none" stroke="#555" stroke-width="0.6"/>

  <!-- ===== BOOTS -- below ankles(590) to ~635 ===== -->
  <path d="M165,570 Q155,590 160,620 Q165,640 180,642 L220,642 Q228,640 228,620 Q230,590 225,570" fill="#fff" stroke="#000" stroke-width="2.0"/>
  <path d="M363,570 Q373,590 368,620 Q363,640 348,642 L308,642 Q300,640 300,620 Q298,590 303,570" fill="#fff" stroke="#000" stroke-width="2.0"/>
  <!-- Boot tips -->
  <path d="M160,620 Q148,628 143,635" fill="none" stroke="#000" stroke-width="1.8"/>
  <path d="M368,620 Q380,628 385,635" fill="none" stroke="#000" stroke-width="1.8"/>

  <!-- ===== SKELETON OVERLAY (debug dots) ===== -->
  <circle cx="276" cy="171" r="2" fill="#555"/><text x="290" y="168" font-size="7" fill="#999">左眼</text>
  <circle cx="247" cy="173" r="2" fill="#555"/><text x="230" y="170" font-size="7" fill="#999">右眼</text>
  <circle cx="264" cy="183" r="3" fill="#000"/><text x="270" y="180" font-size="8" font-weight="700">鼻</text>
  <circle cx="313" cy="222" r="2" fill="#555"/><circle cx="211" cy="218" r="2" fill="#555"/>
  <circle cx="337" cy="293" r="2" fill="#555"/><circle cx="188" cy="281" r="2" fill="#555"/>
  <circle cx="331" cy="274" r="2" fill="#555"/><circle cx="194" cy="286" r="2" fill="#555"/>
  <circle cx="282" cy="357" r="2" fill="#555"/><circle cx="211" cy="355" r="2" fill="#555"/>
  <circle cx="306" cy="477" r="2" fill="#555"/><circle cx="222" cy="471" r="2" fill="#555"/>
  <circle cx="335" cy="594" r="2" fill="#555"/><circle cx="224" cy="587" r="2" fill="#555"/>

  <!-- Callout -->
  <rect x="120" y="652" width="280" height="40" rx="6" fill="#000"/>
  <text x="260" y="670" text-anchor="middle" font-size="12" font-weight="700" fill="#fff">战斗姿态 · YOLOv8 骨架定标</text>
  <text x="260" y="684" text-anchor="middle" font-size="9" fill="#ddd">关节点 ⬤ 来自参考图 17 点检测 · 头身比 1:11</text>
</svg>
